<svg version="1.1" id="Layer_1" xmlns="http://www.w3.org/2000/svg" xmlns:xlink="http://www.w3.org/1999/xlink" x="0px" y="0px"
	 width="100%" viewBox="0 0 1024 1024" enable-background="new 0 0 1024 1024" xml:space="preserve">
<path fill="#A89968" opacity="1.000000" stroke="none" 
	d="
M549.545898,549.773621 
	C547.099304,555.414551 548.370056,560.004150 552.600891,563.608887 
	C554.930603,565.593872 555.465942,567.847473 555.421997,570.649963 
	C555.314758,577.481384 555.106567,584.325928 555.411255,591.144104 
	C555.631653,596.076416 553.901001,599.813354 550.450745,603.113708 
	C542.025940,611.172363 533.830139,619.476013 525.264038,627.379700 
	C518.201355,633.896301 514.899658,641.463013 515.110535,651.243042 
	C515.545105,671.399414 515.325317,691.572083 515.230103,711.737366 
	C515.072571,745.095581 499.317596,769.455017 471.373474,786.438416 
	C455.779266,795.916077 438.131470,799.884583 420.660431,804.197693 
	C404.490173,808.189697 388.152985,811.213684 371.645538,813.497620 
	C358.705078,815.288086 350.530304,825.078552 350.154602,838.421692 
	C350.063477,841.658936 349.596680,844.004578 345.685577,844.098267 
	C321.842529,844.669189 298.331268,843.116089 276.455444,832.352234 
	C254.539215,821.568481 243.706512,800.071838 248.811615,776.937256 
	C252.429428,760.542664 263.295624,749.722534 278.179474,743.159729 
	C295.537872,735.505676 314.158295,732.468628 332.819153,729.729858 
	C351.775299,726.947815 370.868530,725.604675 389.908508,723.687927 
	C398.893616,722.783325 405.950500,718.415833 410.798431,710.739929 
	C421.722809,693.442810 425.423950,674.430664 423.510864,654.297119 
	C422.040497,638.823364 418.088074,623.829712 413.531189,609.002869 
	C413.146729,607.751953 412.756775,606.437317 411.429993,605.684814 
	C408.762024,606.111389 408.810944,608.466919 408.339630,610.231140 
	C404.942963,622.946167 400.528595,635.345398 396.749573,647.936523 
	C391.492920,665.451111 381.036804,678.912292 366.254669,689.324768 
	C343.125946,705.616577 318.159424,718.506470 292.147522,729.460022 
	C277.826141,735.490723 263.271240,740.642273 247.521973,741.477539 
	C226.185822,742.609070 209.902954,732.178162 194.973145,718.679565 
	C192.515396,716.457397 192.007782,713.459473 193.939407,710.504456 
	C196.056656,707.265503 198.957718,707.329956 202.311722,708.483337 
	C206.858231,710.047058 210.137283,714.131409 216.121231,715.160889 
	C214.186981,702.155762 217.250671,691.176880 228.244461,682.572754 
	C230.817337,687.585938 233.154099,692.086792 231.139297,697.672485 
	C229.557739,702.057129 229.201096,706.483643 231.870773,710.621826 
	C235.317383,715.964355 242.735931,716.982666 247.572754,712.871399 
	C251.408386,709.610962 251.346848,705.403259 247.347717,702.292725 
	C246.304138,701.481079 245.150452,700.727051 243.930191,700.240234 
	C237.091034,697.512146 234.289444,692.101501 233.447617,685.169006 
	C232.974747,681.274719 234.768738,679.416077 238.473251,680.414429 
	C238.633774,680.457642 238.825439,680.480408 238.940765,680.582520 
	C248.970352,689.464233 263.285919,689.340759 273.813110,697.191162 
	C278.559998,700.731079 283.294861,700.481628 288.137665,697.151733 
	C294.764160,692.595581 300.402740,686.908447 306.342621,681.572083 
	C318.485565,670.662903 330.544525,659.659912 342.600983,648.654846 
	C349.107605,642.715637 352.568146,635.047485 354.777435,626.703613 
	C361.132629,602.701965 364.227264,578.034485 369.654449,553.840332 
	C372.200684,542.489441 375.836243,531.795715 383.659149,522.791077 
	C392.153473,513.013611 403.407745,508.365570 415.319489,504.743713 
	C424.549377,501.937317 433.958710,499.784576 442.930603,496.058197 
	C455.656921,490.772491 463.814056,482.098511 465.494812,468.054871 
	C465.590820,467.252594 465.463104,466.367981 466.337158,465.770752 
	C468.025055,465.398987 468.987244,466.783325 470.199463,467.566620 
	C475.290588,470.856415 480.738983,473.663544 486.715454,474.346893 
	C491.720428,474.919098 492.624512,477.261108 492.426453,481.583130 
	C492.159698,487.403442 492.231201,493.251099 492.432678,499.077515 
	C492.618469,504.450134 492.405487,508.973419 487.548096,513.143738 
	C482.182587,517.750244 483.301056,524.451294 489.271362,529.627441 
	C491.954620,531.953674 492.944336,534.409424 492.942383,537.825562 
	C492.916779,582.963196 493.044373,628.101013 492.977997,673.238464 
	C492.954498,689.212097 493.904236,705.253357 491.295776,721.120117 
	C487.012207,747.176208 462.586243,768.479370 436.177002,769.316284 
	C427.107269,769.603760 418.669312,771.185181 412.202454,778.382141 
	C406.547180,784.675903 399.345154,786.368530 391.000427,786.133301 
	C375.347137,785.692139 359.672028,785.953979 344.006958,786.064392 
	C340.890808,786.086304 338.813416,785.201965 336.929504,782.529480 
	C333.093170,777.087341 324.805267,776.374878 320.198639,780.705627 
	C315.327545,785.285034 315.181915,793.119263 319.882050,797.736511 
	C324.541595,802.313904 332.604614,802.025696 336.618530,796.581421 
	C338.854004,793.549255 341.371185,792.927124 344.714600,792.940613 
	C362.713379,793.013367 380.713623,792.872375 398.711029,793.046265 
	C404.397308,793.101257 409.203217,791.638000 413.088623,787.437256 
	C420.135437,779.818237 428.516083,776.738342 439.203033,776.459229 
	C466.752228,775.739624 492.693878,751.569214 498.661133,722.656250 
	C499.575623,718.225281 500.002869,713.779541 499.997803,709.263611 
	C499.970245,684.764832 500.146301,660.264282 499.884979,635.768250 
	C499.784485,626.349609 502.526978,618.478882 509.360382,611.978577 
	C513.222046,608.305115 516.764648,604.288208 520.715271,600.718567 
	C525.546753,596.352966 527.421143,591.107605 527.143433,584.673340 
	C526.856262,578.020142 527.166199,571.343262 527.088562,564.678162 
	C527.051636,561.509399 527.849304,559.056396 530.419861,556.815979 
	C536.073669,551.888306 536.437988,545.441528 531.799133,540.598877 
	C527.292603,535.894409 519.883606,535.890747 515.267639,540.590759 
	C510.822784,545.116577 511.145325,552.127808 516.479492,556.937561 
	C518.867004,559.090332 519.567810,561.244324 519.460571,564.316711 
	C519.210632,571.474976 519.330261,578.646545 519.321533,585.812683 
	C519.319275,587.659912 519.327942,589.522766 518.344482,591.153931 
	C514.006531,598.348633 507.105743,603.138245 502.042419,609.494812 
	C499.349579,607.930908 500.045593,605.920349 500.031647,604.205811 
	C499.986969,598.707031 500.033661,593.207031 500.085785,587.708008 
	C500.248322,570.566284 500.468842,553.424927 500.562561,536.282837 
	C500.577179,533.608215 501.288055,531.627502 503.297150,529.707336 
	C509.820068,523.473206 509.611328,516.890198 502.919098,510.902130 
	C501.505951,509.637695 500.324677,508.430756 500.362946,506.324005 
	C500.526367,497.334198 500.607574,488.342834 500.709686,479.351959 
	C500.729645,477.593658 500.953735,475.728455 502.998383,475.437439 
	C511.553345,474.219910 519.222778,470.902771 525.845642,465.735870 
	C528.252747,467.136292 527.923096,469.152069 528.235229,470.871307 
	C530.045471,480.843414 535.166626,488.240265 544.325378,493.015228 
	C555.981323,499.092163 568.880066,501.396301 581.110962,505.709991 
	C593.615173,510.120087 604.773315,516.188721 612.834656,527.212708 
	C618.419128,534.849487 621.051086,543.573547 622.949585,552.517029 
	C627.266357,572.852173 631.247009,593.259888 635.226440,613.664978 
	C638.490417,630.401733 644.464783,645.173035 658.610352,656.353027 
	C672.958130,667.692810 686.041199,680.630127 699.726990,692.812988 
	C701.583374,694.465454 703.693115,695.842712 705.738464,697.271545 
	C710.569641,700.646423 715.446533,700.575867 720.054932,696.966187 
	C725.023010,693.074951 730.466614,690.611389 736.744995,689.583618 
	C740.703430,688.935669 744.022583,686.387085 747.433716,684.306885 
	C748.854736,683.440247 750.182983,682.388306 751.677185,681.682800 
	C753.910706,680.628174 756.381409,679.169739 758.665955,681.188782 
	C760.692688,682.979919 758.985596,685.187927 758.702271,687.250732 
	C757.834106,693.570251 754.497131,697.786194 748.679749,700.438599 
	C745.519348,701.879700 742.031006,703.954041 742.627502,708.119873 
	C743.190430,712.051941 746.135193,714.554626 750.072083,715.290649 
	C754.333130,716.087219 758.104248,714.756653 760.641968,711.195801 
	C763.435974,707.275146 763.875000,702.836182 762.077271,698.349670 
	C759.857605,692.810303 762.364685,688.135071 764.187744,682.402100 
	C775.306519,691.298462 778.932983,702.137329 776.819275,715.479126 
	C781.952271,714.211792 785.144592,710.741882 789.212708,709.017395 
	C792.386108,707.672180 795.843201,706.820068 798.172791,710.396545 
	C800.365540,713.762756 799.928772,717.371887 796.872498,719.887390 
	C784.711182,729.896790 772.069397,739.239441 755.770874,741.132568 
	C742.067322,742.724304 728.860779,739.828857 716.077454,735.184326 
	C685.888245,724.215759 657.380676,709.905334 630.649353,692.015503 
	C612.608276,679.941528 600.140442,664.117126 594.682068,642.837280 
	C591.954773,632.204468 588.361450,621.791870 585.074524,611.306458 
	C584.508301,609.500000 584.450867,607.263733 582.237122,606.390564 
	C580.209595,606.530579 579.859619,608.171997 579.445068,609.535706 
	C573.622009,628.691040 568.339417,647.977783 569.201233,668.265564 
	C569.788696,682.094788 573.557495,695.059937 580.251099,707.283997 
	C586.813843,719.269226 597.126892,723.931519 610.168823,724.756470 
	C638.274841,726.534180 666.244324,729.435974 693.715515,736.042603 
	C708.003113,739.478577 721.668091,744.343872 732.213501,755.003967 
	C752.605774,775.618164 749.703308,807.943787 726.312683,826.044922 
	C711.309204,837.655640 693.735352,841.384888 675.477112,843.264160 
	C647.453613,846.148621 620.032104,841.258728 592.584167,836.836975 
	C566.746887,832.674683 541.576416,825.570923 516.243103,819.202698 
	C514.238281,818.698730 511.881165,818.677063 510.529144,816.749268 
	C510.487152,815.649902 511.089539,815.155701 511.872559,814.755188 
	C528.950745,806.019348 544.851257,795.265747 561.499878,785.795349 
	C566.708435,782.832458 572.116577,780.220337 577.323181,777.254211 
	C579.730896,775.882568 581.549377,776.092896 583.606750,777.898560 
	C595.928833,788.712646 610.175110,794.000427 626.708618,793.111084 
	C634.021790,792.717590 641.371765,793.049744 648.703308,792.939575 
	C651.595276,792.896179 653.617493,793.828918 655.448608,796.259094 
	C659.702698,801.905090 667.615601,802.345154 672.534973,797.541321 
	C677.142151,793.042419 676.861877,784.937500 671.947510,780.554565 
	C666.716614,775.889526 659.822083,776.642029 655.462524,782.558899 
	C654.086182,784.426819 652.673950,785.989868 650.293274,785.949524 
	C637.166687,785.727234 623.937866,787.388977 610.965271,784.184448 
	C604.595337,782.610962 598.843445,779.566589 593.447693,775.866211 
	C592.510376,775.223389 591.451355,774.583496 591.566711,772.720276 
	C594.093384,770.917175 597.353882,770.191406 600.454163,769.270752 
	C614.883606,764.985779 629.665771,762.681885 644.678284,761.832642 
	C647.723755,761.660339 650.825562,762.091980 650.709900,757.384521 
	C650.597595,752.814392 647.613525,752.238342 644.282104,752.340271 
	C628.757812,752.815125 613.397034,754.560913 598.447266,758.994141 
	C593.499634,760.461365 588.589172,762.073669 583.728577,763.806946 
	C581.209717,764.705139 579.369751,764.281921 577.445679,762.391663 
	C573.289429,758.308044 569.121582,754.195557 564.611206,750.521118 
	C552.692627,740.811523 547.941650,728.059387 547.988159,713.096375 
	C548.012512,705.263733 548.042053,697.430054 547.934814,689.598694 
	C547.889221,686.272278 548.565796,683.712952 551.427063,681.377747 
	C556.259277,677.434021 556.858215,672.086548 553.847656,667.050110 
	C551.130737,662.504822 545.615295,660.357483 540.955261,662.030701 
	C535.665466,663.929993 532.710693,668.858521 533.256104,674.645935 
	C533.527466,677.524597 534.847107,679.927673 537.167236,681.304810 
	C540.312805,683.171997 540.373962,685.752319 540.439697,688.914734 
	C540.729553,702.846191 538.762817,716.919800 542.904785,730.632568 
	C545.407776,738.919067 549.445129,746.202209 555.800598,752.229187 
	C561.065979,757.222351 566.026367,762.537231 571.602051,768.196960 
	C566.441589,770.918457 561.717102,773.248047 557.147034,775.848999 
	C539.629456,785.818848 522.189087,795.908081 504.037262,804.731140 
	C470.230560,821.163635 434.607697,831.755127 397.693298,838.219543 
	C386.717285,840.141602 375.656982,841.606567 364.609039,843.084595 
	C358.029724,843.964783 356.824890,842.554443 357.846924,836.031860 
	C359.072296,828.211548 365.234131,821.924683 373.567261,820.771851 
	C395.368195,817.755859 416.880615,813.350830 438.083069,807.514587 
	C459.528442,801.611511 479.577362,792.923828 495.618805,776.822205 
	C512.847656,759.528625 522.277649,738.743164 522.673645,714.275085 
	C523.021545,692.781677 522.925537,671.276001 522.647217,649.780579 
	C522.559692,643.019287 525.042603,637.883301 529.665527,633.390259 
	C537.910522,625.376953 546.031189,617.231873 554.411011,609.362427 
	C560.343323,603.791321 563.707397,597.476868 563.080627,589.060791 
	C562.623962,582.928345 563.014709,576.735413 562.947693,570.570251 
	C562.919312,567.954163 563.487854,565.887695 565.650757,563.991028 
	C572.005737,558.418579 572.518066,551.208313 567.244202,546.208557 
	C562.166321,541.394592 554.890869,542.730713 549.545898,549.773621 
M436.239807,682.067383 
	C435.374298,687.353455 436.994385,691.592041 441.547028,694.570251 
	C442.553436,695.228638 443.642731,695.970337 443.660065,697.199097 
	C443.764160,704.577942 445.784119,712.489380 439.672455,718.538086 
	C430.563354,727.553162 421.537567,736.719421 411.745605,744.952148 
	C405.910431,749.858093 398.041534,747.186707 391.033234,747.247192 
	C390.348938,747.253113 389.598907,745.997986 388.971649,745.250732 
	C383.994415,739.321289 376.767975,738.633911 371.510834,743.613281 
	C366.733795,748.137939 367.090393,756.692139 372.234985,760.985535 
	C377.627502,765.485657 384.677551,764.412598 389.013153,758.024170 
	C390.655670,755.604004 392.439636,754.794189 395.171295,754.807800 
	C405.167633,754.857666 415.172180,754.498657 425.160095,754.777771 
	C453.181396,755.560730 478.360474,732.917358 477.165009,702.856140 
	C476.622681,689.218506 476.856934,675.526978 477.338409,661.881042 
	C477.591217,654.716614 475.810883,648.746399 470.803772,643.743896 
	C466.208862,639.153259 461.825867,634.280457 456.806274,630.200317 
	C447.587799,622.707031 441.505768,614.109375 443.923187,601.520691 
	C444.046661,600.877625 443.966125,600.189819 443.939941,599.524414 
	C443.741821,594.493286 443.900269,590.100525 448.604095,586.237793 
	C453.603668,582.132080 452.792389,575.215393 448.127197,570.765137 
	C444.480164,567.286133 437.272858,567.127258 433.420441,570.440857 
	C428.571136,574.611938 427.301575,581.767517 431.846802,585.929504 
	C436.198517,589.914307 436.546356,594.310974 436.368011,599.384277 
	C436.233459,603.211792 436.447510,607.051941 436.301819,610.878662 
	C436.051361,617.458862 438.326080,622.836060 443.173340,627.331848 
	C450.255524,633.900513 457.150757,640.670593 464.141663,647.338074 
	C467.938629,650.959351 470.072906,655.261414 470.057739,660.613525 
	C470.017151,674.941833 470.376404,689.278992 469.990692,703.596802 
	C469.436218,724.178589 458.257538,739.640869 440.078186,745.173645 
	C434.716888,746.805359 429.011993,748.020325 423.348724,746.242859 
	C423.362427,743.428528 425.229492,742.522644 426.449707,741.293884 
	C432.433716,735.267578 438.536438,729.359192 444.591064,723.402893 
	C448.980560,719.084717 451.161957,713.889282 450.945923,707.684692 
	C450.859070,705.190186 451.110321,702.683350 451.011414,700.189880 
	C450.904694,697.499451 451.708862,695.527161 453.917328,693.736145 
	C457.992706,690.431091 459.903412,686.209351 457.706390,680.908203 
	C455.835052,676.392944 452.759338,673.451904 447.639343,673.220154 
	C442.403992,672.983093 438.943878,675.473999 436.239807,682.067383 
M476.011505,563.079285 
	C476.405548,562.772278 476.818787,562.486755 477.190704,562.154968 
	C482.995819,556.976440 483.625549,550.214905 478.786133,545.095764 
	C474.161682,540.204041 466.775970,540.124634 462.386719,544.919495 
	C457.730377,550.006165 458.355072,557.113342 464.240143,561.940308 
	C466.614471,563.887756 467.200989,566.036804 467.186401,568.873047 
	C467.106781,584.359558 467.224182,599.847229 467.100525,615.333130 
	C467.062775,620.062561 468.945801,623.041077 473.559143,624.707153 
	C474.312073,620.066406 474.750458,615.805481 474.720337,611.457214 
	C474.622345,597.303040 474.670563,583.147644 474.710236,568.992920 
	C474.715240,567.204834 474.224213,565.309021 476.011505,563.079285 
z"/>
<path fill="#A89968" opacity="1.000000" stroke="none" 
	d="
M412.049011,257.244812 
	C417.407532,241.305374 424.586853,226.712997 433.994720,213.239105 
	C435.354767,211.291260 436.221313,208.423187 439.686615,210.413315 
	C445.304474,213.639664 446.705597,216.012177 444.673889,219.903412 
	C440.437469,228.017151 435.342682,235.645203 431.367950,243.924454 
	C425.483582,256.181610 421.500793,268.992645 419.101624,282.340240 
	C418.747772,284.308838 417.808105,286.462524 420.362091,287.521301 
	C423.942139,289.005493 426.102417,294.251984 431.227234,291.684387 
	C436.885345,288.849609 442.624756,286.164459 448.177032,283.135956 
	C451.444366,281.353760 453.185638,281.979034 454.769287,285.335846 
	C458.150055,292.502045 458.291077,292.446503 451.071350,296.091156 
	C446.609650,298.343475 442.158020,300.618591 437.650543,302.776276 
	C435.271637,303.915009 434.081665,305.513733 434.346649,308.264435 
	C434.537231,310.242493 434.499298,312.278656 434.264557,314.253387 
	C433.894775,317.363770 435.246674,319.218903 437.885040,320.665161 
	C443.287811,323.626892 448.597107,326.760315 453.923096,329.860535 
	C456.928070,331.609741 456.888824,333.199524 454.068024,335.433594 
	C447.469849,340.659302 447.564270,340.781799 439.956543,336.573334 
	C437.623962,335.283020 435.174835,334.156860 432.999817,332.639221 
	C429.810760,330.413971 427.217102,329.821014 423.636230,332.537506 
	C420.001892,335.294556 420.787018,338.026123 421.880035,341.263000 
	C422.092896,341.893433 422.237000,342.546692 422.429535,343.184387 
	C424.881042,351.305237 424.740784,351.309906 416.428223,353.431824 
	C413.471161,354.186646 412.064453,353.571289 411.281891,350.728821 
	C410.619629,348.323303 409.741394,345.976440 408.936066,343.611389 
	C408.006561,340.881653 407.942383,337.823853 403.866150,337.127594 
	C399.553253,336.390930 396.615875,337.293427 394.190643,341.059021 
	C391.129364,345.812225 387.560608,350.235321 384.332642,354.885437 
	C381.188232,359.415161 378.667847,355.983368 376.026367,354.348816 
	C373.278259,352.648224 371.099182,350.920807 374.001373,347.312317 
	C377.337097,343.164764 380.311035,338.721710 383.357269,334.347931 
	C384.652374,332.488434 386.390015,330.795380 386.424835,328.409790 
	C385.742523,327.414459 384.937531,327.406281 384.121918,327.731598 
	C366.383514,334.807129 349.434998,343.255280 335.339630,356.480682 
	C329.673706,361.796906 331.415497,372.021851 338.332458,375.527496 
	C349.018188,380.943268 360.563477,383.403809 372.191925,385.676239 
	C376.708771,386.558929 379.710846,384.416046 382.853516,381.664612 
	C397.022247,369.259888 414.036407,362.799103 432.067078,358.565643 
	C432.330444,358.503784 432.670746,358.769684 433.012512,358.896515 
	C434.145294,360.135254 433.296997,361.373291 432.951691,362.606598 
	C432.055389,365.807770 430.564453,368.969513 430.363007,372.212372 
	C429.909302,379.515594 426.385986,382.451447 419.346100,384.921814 
	C404.924957,389.982391 392.110626,398.213959 383.706573,411.721283 
	C373.640228,427.900299 380.012268,448.803589 397.251526,456.979553 
	C407.618164,461.896088 418.208710,461.573730 428.966034,458.970673 
	C431.871063,458.267670 434.699799,457.225708 437.530579,456.244293 
	C444.330414,453.886780 445.637787,454.574829 447.434601,461.605682 
	C449.434387,469.430725 445.701721,476.508270 438.142517,479.045288 
	C418.700745,485.570435 399.962616,485.232117 382.028564,473.953522 
	C360.401886,460.352600 351.486237,434.428284 360.607727,410.289703 
	C362.183289,406.120178 364.169678,402.105896 365.953064,398.050018 
	C364.898468,396.579437 363.329803,396.526367 361.904724,396.221680 
	C350.452026,393.773224 339.442627,390.034119 328.923401,384.883972 
	C327.210022,384.045074 325.719238,383.440521 323.826508,384.674377 
	C319.692932,387.369019 315.094330,387.767639 310.363831,386.695374 
	C308.195526,386.203888 306.495331,386.461639 305.185822,388.499329 
	C302.395386,392.841309 299.421783,397.054169 297.174500,401.740326 
	C295.768127,404.672882 296.512909,406.382996 299.366913,407.669830 
	C307.365509,411.276306 315.761566,413.225372 324.485291,413.678925 
	C331.984955,414.068848 339.479950,413.742889 346.887390,412.428802 
	C350.001434,411.876373 351.545898,412.535004 350.494751,415.981018 
	C349.072021,420.645142 348.753204,425.477722 348.472473,430.286652 
	C348.318024,432.932404 347.345856,434.177277 344.683289,434.484833 
	C322.494904,437.048126 301.107056,435.208649 281.408295,423.448914 
	C278.060822,421.450500 277.003540,419.312317 278.348450,415.259583 
	C282.356873,403.180542 286.821838,391.400940 294.930359,381.360535 
	C296.246277,379.731140 297.239258,377.894501 296.437500,375.837708 
	C295.005920,372.165131 294.529053,368.447205 295.087402,364.565338 
	C295.417938,362.267426 293.586243,361.403137 292.155914,360.326782 
	C279.529053,350.824677 269.111603,339.249756 259.651855,326.644531 
	C255.301971,320.848267 254.059357,314.802460 255.037140,307.911285 
	C258.387695,284.297821 268.501709,264.832947 289.353943,252.000870 
	C291.722046,250.543579 292.616669,248.449066 293.454041,246.043976 
	C302.291443,220.661530 319.639252,203.649734 344.653503,194.259293 
	C346.481049,193.573227 348.364441,192.657501 351.152954,193.664062 
	C351.556763,200.157791 351.439240,206.914856 350.647003,213.642075 
	C350.352478,216.143036 347.754486,216.694916 345.883026,217.649155 
	C333.294952,224.067673 323.570099,233.267242 317.757965,246.316315 
	C317.285980,247.376007 316.825287,248.451340 316.501770,249.560928 
	C316.384064,249.964584 316.682526,250.489548 316.861206,251.262192 
	C323.141815,250.854630 329.418945,249.934021 335.644714,250.202576 
	C340.801208,250.425018 345.129608,250.394470 347.375793,244.832748 
	C347.663574,244.120117 348.399963,243.340042 349.107086,243.083755 
	C356.198456,240.513443 355.722168,234.226990 356.846252,228.410507 
	C358.941528,217.568649 359.971924,206.680878 360.041534,195.662750 
	C360.097839,186.754166 366.201294,181.466507 372.369446,176.673309 
	C385.096588,166.783142 399.851868,161.485672 415.856110,161.073578 
	C424.721649,160.845306 431.542450,155.902969 439.455658,153.618164 
	C456.677307,148.645798 473.806091,147.405548 490.934540,153.684906 
	C502.531647,157.936417 506.101501,163.155624 506.117920,175.403427 
	C506.143188,194.234818 506.083435,213.066483 506.163422,231.897568 
	C506.209076,242.654617 510.982300,248.822281 521.142273,252.264755 
	C525.749634,253.825867 530.441284,254.857193 535.206299,255.626419 
	C538.211426,256.111542 540.781250,256.805878 540.882507,260.601135 
	C540.981506,264.312317 539.152893,265.904510 535.599609,266.510162 
	C530.523254,267.375519 525.453735,268.319214 520.523010,269.957703 
	C511.536743,272.943878 506.780029,279.296234 506.304749,288.464935 
	C505.804901,298.106293 505.915161,307.789520 506.069153,317.449493 
	C506.131500,321.359619 505.009857,322.984528 500.924469,322.416748 
	C498.305267,322.052765 495.600830,322.280762 492.934601,322.280426 
	C485.922180,322.279541 485.993958,322.287598 485.990997,315.006622 
	C485.987335,306.010376 485.983673,297.010437 485.731750,288.019012 
	C485.473755,278.810974 480.845154,272.800598 471.999939,269.899048 
	C467.067902,268.281128 462.046478,267.171509 456.958374,266.298553 
	C453.858978,265.766785 451.673553,264.733856 451.803894,260.923096 
	C451.927979,257.296082 453.727509,256.018982 457.052856,255.646927 
	C461.685516,255.128601 466.244202,254.152725 470.711029,252.738693 
	C481.119202,249.443817 485.979614,242.965240 485.981323,232.068619 
	C485.983917,215.570374 485.782837,199.069931 486.012268,182.575195 
	C486.082703,177.512085 484.015289,174.788330 479.454865,173.405350 
	C463.579987,168.591080 448.798248,171.859833 434.841248,179.830429 
	C430.890320,182.086731 427.053802,183.156570 422.557312,182.984146 
	C416.060425,182.735016 409.561493,183.048996 403.248230,184.925949 
	C385.365326,190.242599 376.258942,203.495728 371.552521,220.462189 
	C370.093170,225.723206 369.708954,231.275665 368.672485,236.663895 
	C368.213257,239.051300 369.244690,240.305557 371.071838,241.580627 
	C380.414917,248.100586 382.823761,255.090591 379.211182,265.749756 
	C378.363800,268.249939 378.355835,270.143372 380.102386,272.151917 
	C383.928253,276.551727 387.659668,281.033875 391.413818,285.495697 
	C392.995056,287.374908 394.680298,287.625305 397.153900,286.949371 
	C403.204102,285.296051 406.395752,282.053436 407.184814,275.447266 
	C407.906769,269.402985 410.281311,263.556061 412.049011,257.244812 
M380.655914,314.891876 
	C382.530609,309.088226 381.441010,302.712494 384.229431,297.030579 
	C384.912750,295.638153 383.036285,294.433228 382.071747,293.342682 
	C378.106293,288.859039 373.512726,284.923553 370.223907,279.851868 
	C368.725342,277.540894 367.023865,276.710938 364.018982,277.145325 
	C357.107819,278.144379 350.201965,276.150665 347.021912,270.108765 
	C343.523346,263.461792 338.752045,262.877319 332.704102,263.419098 
	C329.556305,263.701050 326.387146,263.856934 323.268951,264.337738 
	C307.946289,266.700043 294.783569,272.351044 285.585846,285.970337 
	C270.040619,308.988586 276.039520,336.538757 300.244171,350.260193 
	C303.938904,352.354736 306.400208,351.143707 306.778931,346.960266 
	C307.138580,342.987305 307.264191,338.990875 307.698761,335.027374 
	C309.048767,322.715210 312.176270,310.837891 316.777954,299.350861 
	C317.434631,297.711609 317.985535,295.809448 320.482758,296.005554 
	C327.387878,296.547882 330.400055,300.791321 327.832275,307.208954 
	C323.021301,319.233093 320.688324,331.767059 319.446716,344.560425 
	C319.276581,346.313934 318.750214,348.455383 320.617981,349.621094 
	C322.723175,350.935028 324.014679,348.898651 325.291809,347.811005 
	C341.682648,333.852081 360.056091,323.260193 380.655914,314.891876 
z"/>
<path fill="#A89968" opacity="1.000000" stroke="none" 
	d="
M642.377808,342.648224 
	C645.147766,344.199890 645.447571,345.912170 643.628174,348.086456 
	C642.668335,349.233582 641.731384,350.436127 641.007996,351.738037 
	C639.052551,355.257324 636.905457,355.228088 633.793762,352.900391 
	C625.390869,346.614685 616.768433,340.623474 608.280457,334.450226 
	C605.083618,332.125183 602.177490,330.804413 598.579529,334.054108 
	C596.376099,336.044312 593.345154,337.088501 590.291931,337.212860 
	C585.899963,337.391724 584.032104,339.743744 582.827820,343.795837 
	C579.120300,356.270996 574.253174,368.314758 568.138977,379.828064 
	C567.534729,380.965820 567.229187,382.359009 565.010315,383.277344 
	C564.549683,374.363434 558.550964,366.431610 564.160034,357.090820 
	C567.359497,351.762726 568.489136,345.229126 570.947815,339.406006 
	C572.648315,335.378448 570.130615,333.760803 567.748352,331.566620 
	C565.398376,329.402161 563.455688,329.867676 561.070251,331.363495 
	C557.125061,333.837372 552.911804,335.895172 549.041016,338.472931 
	C545.634155,340.741699 543.048340,340.459564 540.472107,337.285583 
	C539.147583,335.653748 537.380615,334.380981 535.519043,332.676208 
	C539.091492,328.812622 543.284851,326.796051 547.271851,324.501190 
	C548.281738,323.919922 549.340332,323.423950 550.364136,322.865997 
	C558.092285,318.654205 559.941772,314.327484 557.779602,305.902679 
	C557.236328,303.785858 555.556702,303.175293 553.933105,302.344147 
	C548.598328,299.613068 543.328369,296.749756 537.934082,294.143097 
	C534.952698,292.702393 534.732910,291.055176 536.176575,288.213379 
	C539.917725,280.849548 539.877991,280.763214 547.252808,284.622375 
	C551.532288,286.861755 555.933289,288.899414 560.058960,291.392883 
	C563.410217,293.418335 565.893188,292.381348 568.687561,290.366241 
	C571.568237,288.288910 570.835693,285.856720 570.063171,283.235352 
	C568.745422,278.763885 567.656372,274.213196 566.096375,269.829193 
	C565.090271,267.001770 565.947510,265.796570 568.607117,265.206879 
	C569.905151,264.919037 571.186890,264.521423 572.439453,264.071777 
	C575.777344,262.873474 577.896301,263.872742 578.844177,267.365112 
	C580.020813,271.700439 581.291138,276.010254 582.509216,280.334442 
	C582.870300,281.616272 582.946411,283.048279 583.581543,284.168610 
	C584.942078,286.568512 598.692383,287.697296 600.540405,285.660675 
	C604.457336,281.344116 608.303284,276.962128 612.272339,272.694336 
	C614.150391,270.674957 613.739624,268.649994 613.760620,266.059204 
	C613.831055,257.378448 607.619995,255.229370 601.617798,252.375031 
	C582.814392,243.432983 564.096130,234.310532 545.241455,225.478668 
	C541.325317,223.644272 540.369019,220.973389 540.743713,217.110260 
	C540.926575,215.224670 541.664978,214.019485 543.416260,213.315430 
	C560.733948,206.353317 578.117798,199.606613 596.777649,197.065781 
	C599.737793,196.662720 602.725952,196.468582 605.696716,196.137527 
	C605.983704,196.105560 606.238647,195.786606 607.045105,195.231400 
	C603.315125,190.960785 598.663086,188.357224 593.597046,186.384872 
	C586.671570,183.688553 579.369019,182.956818 572.036438,182.637329 
	C568.080627,182.464981 564.567017,181.254776 561.184265,179.333908 
	C547.733887,171.696075 533.543579,168.931244 518.367859,173.032623 
	C515.115845,173.911514 513.664795,172.907166 513.786987,169.429352 
	C513.933228,165.267731 514.083679,161.078384 513.767395,156.936539 
	C513.473022,153.080826 515.234375,151.461472 518.699097,150.860840 
	C531.733215,148.601349 544.810303,148.558273 557.092163,153.602249 
	C567.933289,158.054581 579.012329,160.723007 590.459778,162.881271 
	C606.859680,165.973251 620.602356,174.226685 630.798889,187.686371 
	C632.793335,190.319153 635.374268,190.760132 638.097107,191.372360 
	C664.727905,197.360214 683.439636,213.206757 695.952087,237.160629 
	C700.143799,245.185425 699.369690,253.132462 697.836304,261.419708 
	C694.668884,278.538727 688.901306,294.846466 682.665894,311.017120 
	C681.999939,312.744110 681.534119,314.291046 682.257385,316.260376 
	C687.731445,331.164917 691.383911,346.508362 693.004883,362.323608 
	C693.148682,363.726685 692.747986,365.409729 694.554138,366.500183 
	C695.021973,366.252411 695.764587,366.096222 696.114990,365.639313 
	C710.309631,347.127533 719.012390,326.920563 714.471436,302.995331 
	C713.066040,295.590179 710.086243,288.587280 705.210327,282.715271 
	C702.656189,279.639435 702.374878,276.797516 703.457825,273.078857 
	C705.200378,267.094879 706.349304,260.937958 707.952759,253.968597 
	C714.826965,259.103699 720.071106,264.747528 724.356018,271.250122 
	C732.212280,283.172211 737.252686,296.408478 737.611023,310.554749 
	C737.872986,320.891052 741.233582,329.956665 744.271057,339.405151 
	C752.907104,366.267761 750.991455,392.369781 737.074463,417.077698 
	C731.162048,427.574341 722.360535,435.581787 711.474487,440.952271 
	C707.955261,442.688477 706.573181,444.835510 706.038330,448.877686 
	C703.858582,465.350311 696.046692,479.088654 683.942871,490.345673 
	C665.906006,507.120789 644.060059,510.455017 620.637024,507.851501 
	C617.751587,507.530762 615.349426,505.834564 613.048706,504.188049 
	C603.752808,497.535553 593.731018,492.419983 582.707642,489.258820 
	C576.176331,487.385834 572.113098,482.348480 568.847900,476.914154 
	C566.185242,472.482605 563.247314,471.077820 558.651855,473.524231 
	C558.505005,473.602386 558.353333,473.675751 558.196533,473.730072 
	C550.025330,476.561310 548.186279,475.968292 546.004761,469.801880 
	C543.293945,462.139526 545.569336,455.306976 551.819275,453.188110 
	C568.265015,447.612518 582.951355,438.003174 599.494690,432.628296 
	C609.503235,429.376556 619.532532,426.509064 630.084717,425.632538 
	C633.743530,425.328613 634.929871,426.849243 634.917297,430.106842 
	C634.901306,434.273224 634.873596,438.439911 634.909058,442.605957 
	C634.936646,445.839996 633.570190,447.246674 630.170044,447.567780 
	C615.527039,448.950684 602.136536,454.521149 588.886353,460.456543 
	C587.829651,460.929871 586.831543,461.561157 585.873901,462.217804 
	C585.351685,462.575867 584.971863,463.141541 584.196777,463.965576 
	C588.486938,470.035400 594.473816,473.962708 600.738525,477.253021 
	C620.503784,487.633972 640.785217,490.943451 661.328796,479.556763 
	C673.185608,472.984924 679.727112,462.208649 683.698975,448.750793 
	C675.783447,448.254364 668.407715,447.723724 661.023926,447.354584 
	C656.698608,447.138367 652.358765,447.072998 648.028564,447.141052 
	C644.934265,447.189697 643.442932,446.189850 643.534973,442.808319 
	C643.652588,438.487946 643.360291,434.153107 643.158936,429.828491 
	C643.011658,426.665283 644.201782,425.323120 647.568176,425.513672 
	C657.209900,426.059357 666.863953,426.643005 676.516174,426.700043 
	C703.219299,426.857941 720.228088,412.871704 725.397034,386.788910 
	C727.663879,375.350311 727.328857,363.937531 724.752808,352.582733 
	C724.395691,351.008545 724.285339,349.273071 722.279602,347.955902 
	C717.604858,357.456787 712.084595,366.308533 705.307251,374.326508 
	C703.928833,375.957275 704.544189,377.720093 705.034119,379.536713 
	C707.288696,387.897766 705.221008,395.210297 698.614075,400.681244 
	C691.959229,406.191895 684.266479,406.088348 675.878174,400.848511 
	C673.600586,399.425751 671.791870,399.339478 669.403870,400.290985 
	C645.744141,409.718506 620.967712,411.785889 595.803833,411.442566 
	C590.261902,411.366974 590.887268,407.741241 590.891907,404.227142 
	C590.896423,400.720886 591.432678,398.312622 596.132080,398.344696 
	C618.873596,398.499969 641.359802,396.640747 663.066650,389.004425 
	C666.363892,387.844513 668.175171,386.403015 668.478455,382.928284 
	C668.998413,376.971802 671.343689,371.979187 676.735657,368.881897 
	C679.281616,367.419464 679.081238,365.084930 678.978943,362.746674 
	C678.308899,347.425812 674.373352,332.841949 668.635986,318.735382 
	C667.267578,315.370728 667.306274,312.690765 668.633606,309.293457 
	C672.623718,299.080688 677.214905,289.069702 679.072510,278.092896 
	C684.161804,248.018921 664.082764,221.304382 636.317871,213.459671 
	C635.731628,213.294037 635.057678,213.438873 633.739197,213.438873 
	C635.683838,222.536819 637.286255,231.315567 638.317932,240.180344 
	C638.516113,241.883392 640.128662,242.419952 641.419922,243.176086 
	C648.077942,247.074844 652.402832,256.271576 650.830750,263.128906 
	C648.661133,272.592651 642.148254,279.846802 633.428101,278.705048 
	C624.924805,277.591644 620.928223,281.630035 616.640381,287.017151 
	C616.022400,287.793518 615.261169,288.469360 614.504211,289.119476 
	C609.647339,293.291016 605.969482,297.394897 609.831543,304.652527 
	C611.576355,307.931458 611.328064,312.433533 610.368958,316.445801 
	C609.766479,318.966156 610.555725,320.750092 612.882690,322.315460 
	C622.690552,328.913239 632.352112,335.728638 642.377808,342.648224 
M598.708740,236.740845 
	C604.082581,239.382095 609.416260,242.109436 614.842651,244.637939 
	C619.355713,246.740936 625.174500,242.819550 624.582336,237.933350 
	C623.622742,230.015915 622.319397,222.158722 619.572937,214.582031 
	C618.223206,210.858383 615.903687,209.467758 612.108093,209.354156 
	C607.418701,209.213806 602.802124,209.783142 598.192322,210.328033 
	C586.628845,211.694824 575.686218,215.272461 563.899170,219.964828 
	C575.982544,225.803696 587.001709,231.128357 598.708740,236.740845 
z"/>
<path fill="#A89968" opacity="1.000000" stroke="none" 
	d="
M444.826782,404.802307 
	C444.553680,396.376740 443.935791,388.452972 445.398407,380.472046 
	C450.755524,351.239807 474.055237,335.928101 503.571838,339.139221 
	C528.666077,341.869202 546.479004,361.194580 548.323486,386.362946 
	C549.993103,409.145172 545.045044,429.941895 531.270081,448.414520 
	C512.859070,473.104095 480.169128,473.160309 461.609283,448.509399 
	C451.943848,435.671875 446.819031,421.079926 444.826782,404.802307 
z"/>
<path fill="#A89968" opacity="1.000000" stroke="none" 
	d="
M268.000549,357.063629 
	C267.679718,369.021393 270.250336,379.684174 276.859344,389.223633 
	C277.718872,390.464264 278.658020,391.786163 278.042969,393.372772 
	C275.411560,400.160736 272.705292,406.919647 269.992249,413.775238 
	C249.466629,400.276550 237.817932,357.730072 250.672180,329.728607 
	C253.242584,329.563202 253.632248,332.028229 254.869492,333.381378 
	C257.565674,336.330170 259.918121,339.611023 262.750336,342.413300 
	C266.768066,346.388550 269.202301,350.761292 268.000549,357.063629 
z"/>
</svg>